<?xml version="1.0" encoding="UTF-8"?>
<!DOCTYPE svg PUBLIC "-//W3C//DTD SVG 1.1//EN" "http://www.w3.org/Graphics/SVG/1.1/DTD/svg11.dtd">
<svg version="1.2" width="69.06mm" height="69.06mm" viewBox="0 0 6906 6906" preserveAspectRatio="xMidYMid" fill-rule="evenodd" stroke-width="28.222" stroke-linejoin="round" xmlns="http://www.w3.org/2000/svg" xmlns:ooo="http://xml.openoffice.org/svg/export" xmlns:xlink="http://www.w3.org/1999/xlink" xmlns:presentation="http://sun.com/xmlns/staroffice/presentation" xmlns:smil="http://www.w3.org/2001/SMIL20/" xmlns:anim="urn:oasis:names:tc:opendocument:xmlns:animation:1.0" xml:space="preserve">
 <defs class="ClipPathGroup">
  <clipPath id="presentation_clip_path" clipPathUnits="userSpaceOnUse">
   <rect x="0" y="0" width="6906" height="6906"/>
  </clipPath>
  <clipPath id="presentation_clip_path_shrink" clipPathUnits="userSpaceOnUse">
   <rect x="6" y="6" width="6893" height="6893"/>
  </clipPath>
 </defs>
 <defs class="TextShapeIndex">
  <g ooo:slide="id1" ooo:id-list="id3"/>
 </defs>
 <defs class="EmbeddedBulletChars">
  <g id="bullet-char-template-57356" transform="scale(0.00048828125,-0.00048828125)">
   <path d="M 580,1141 L 1163,571 580,0 -4,571 580,1141 Z"/>
  </g>
  <g id="bullet-char-template-57354" transform="scale(0.00048828125,-0.00048828125)">
   <path d="M 8,1128 L 1137,1128 1137,0 8,0 8,1128 Z"/>
  </g>
  <g id="bullet-char-template-10146" transform="scale(0.00048828125,-0.00048828125)">
   <path d="M 174,0 L 602,739 174,1481 1456,739 174,0 Z M 1358,739 L 309,1346 659,739 1358,739 Z"/>
  </g>
  <g id="bullet-char-template-10132" transform="scale(0.00048828125,-0.00048828125)">
   <path d="M 2015,739 L 1276,0 717,0 1260,543 174,543 174,936 1260,936 717,1481 1274,1481 2015,739 Z"/>
  </g>
  <g id="bullet-char-template-10007" transform="scale(0.00048828125,-0.00048828125)">
   <path d="M 0,-2 C -7,14 -16,27 -25,37 L 356,567 C 262,823 215,952 215,954 215,979 228,992 255,992 264,992 276,990 289,987 310,991 331,999 354,1012 L 381,999 492,748 772,1049 836,1024 860,1049 C 881,1039 901,1025 922,1006 886,937 835,863 770,784 769,783 710,716 594,584 L 774,223 C 774,196 753,168 711,139 L 727,119 C 717,90 699,76 672,76 641,76 570,178 457,381 L 164,-76 C 142,-110 111,-127 72,-127 30,-127 9,-110 8,-76 1,-67 -2,-52 -2,-32 -2,-23 -1,-13 0,-2 Z"/>
  </g>
  <g id="bullet-char-template-10004" transform="scale(0.00048828125,-0.00048828125)">
   <path d="M 285,-33 C 182,-33 111,30 74,156 52,228 41,333 41,471 41,549 55,616 82,672 116,743 169,778 240,778 293,778 328,747 346,684 L 369,508 C 377,444 397,411 428,410 L 1163,1116 C 1174,1127 1196,1133 1229,1133 1271,1133 1292,1118 1292,1087 L 1292,965 C 1292,929 1282,901 1262,881 L 442,47 C 390,-6 338,-33 285,-33 Z"/>
  </g>
  <g id="bullet-char-template-9679" transform="scale(0.00048828125,-0.00048828125)">
   <path d="M 813,0 C 632,0 489,54 383,161 276,268 223,411 223,592 223,773 276,916 383,1023 489,1130 632,1184 813,1184 992,1184 1136,1130 1245,1023 1353,916 1407,772 1407,592 1407,412 1353,268 1245,161 1136,54 992,0 813,0 Z"/>
  </g>
  <g id="bullet-char-template-8226" transform="scale(0.00048828125,-0.00048828125)">
   <path d="M 346,457 C 273,457 209,483 155,535 101,586 74,649 74,723 74,796 101,859 155,911 209,963 273,989 346,989 419,989 480,963 531,910 582,859 608,796 608,723 608,648 583,586 532,535 482,483 420,457 346,457 Z"/>
  </g>
  <g id="bullet-char-template-8211" transform="scale(0.00048828125,-0.00048828125)">
   <path d="M -4,459 L 1135,459 1135,606 -4,606 -4,459 Z"/>
  </g>
  <g id="bullet-char-template-61548" transform="scale(0.00048828125,-0.00048828125)">
   <path d="M 173,740 C 173,903 231,1043 346,1159 462,1274 601,1332 765,1332 928,1332 1067,1274 1183,1159 1299,1043 1357,903 1357,740 1357,577 1299,437 1183,322 1067,206 928,148 765,148 601,148 462,206 346,322 231,437 173,577 173,740 Z"/>
  </g>
 </defs>
 <defs class="TextEmbeddedBitmaps"/>
 <g>
  <g id="id2" class="Master_Slide">
   <g id="bg-id2" class="Background"/>
   <g id="bo-id2" class="BackgroundObjects"/>
  </g>
 </g>
 <g class="SlideGroup">
  <g>
   <g id="container-id1">
    <g id="id1" class="Slide" clip-path="url(#presentation_clip_path)">
     <g class="Page">
      <g class="Graphic">
       <g id="id3">
        <rect class="BoundingBox" stroke="none" fill="none" x="0" y="0" width="6906" height="6906"/>
        <path fill="rgb(252,199,43)" stroke="none" d="M 5050,2400 L 3544,4578 C 3528,4601 3505,4619 3478,4628 3451,4636 3423,4636 3396,4627 3369,4618 3346,4601 3330,4578 3315,4555 3307,4527 3308,4499 L 3368,3297 2395,3090 C 2374,3086 2355,3076 2339,3063 2322,3049 2310,3031 2302,3012 2294,2992 2291,2971 2294,2950 2296,2929 2304,2909 2316,2891 L 3822,713 C 3838,690 3861,673 3888,664 3915,655 3944,655 3970,664 3997,673 4020,690 4036,713 4052,736 4059,764 4058,792 L 3998,1995 4971,2201 C 4992,2206 5011,2215 5027,2229 5044,2242 5056,2260 5064,2279 5072,2299 5075,2320 5073,2341 5070,2362 5063,2383 5050,2400 L 5050,2400 5050,2400 Z"/>
        <path fill="rgb(114,155,27)" stroke="none" d="M 3473,6406 C 3433,6406 3393,6398 3356,6383 3319,6367 3285,6345 3257,6316 L 1834,4893 C 1777,4836 1745,4758 1745,4678 1745,4597 1777,4519 1834,4462 1891,4405 1969,4373 2049,4373 2130,4373 2208,4405 2265,4462 L 3473,5669 6104,3038 C 6161,2982 6239,2950 6319,2951 6400,2951 6477,2983 6534,3040 6591,3097 6623,3174 6623,3254 6623,3335 6592,3412 6535,3470 L 3688,6316 C 3660,6345 3627,6367 3590,6383 3553,6398 3513,6406 3473,6406 L 3473,6406 Z"/>
        <path fill="rgb(114,155,27)" fill-opacity="0.502" stroke="rgb(255,255,255)" stroke-opacity="0.502" d="M 3472,6406 C 3512,6406 3551,6398 3588,6383 3625,6367 3659,6345 3687,6316 L 5111,4893 C 5168,4836 5200,4758 5200,4678 5199,4597 5167,4519 5110,4462 5053,4405 4976,4373 4895,4373 4814,4373 4737,4405 4679,4462 L 3472,5669 840,3038 C 783,2982 706,2950 625,2951 545,2951 468,2983 411,3040 354,3097 322,3174 321,3254 321,3335 352,3412 409,3470 L 3256,6316 C 3284,6345 3318,6367 3355,6383 3392,6398 3432,6406 3472,6406 L 3472,6406 Z"/>
       </g>
      </g>
     </g>
    </g>
   </g>
  </g>
 </g>
</svg>