<?xml version="1.0" encoding="UTF-8"?>
<!DOCTYPE svg PUBLIC "-//W3C//DTD SVG 1.1//EN" "http://www.w3.org/Graphics/SVG/1.1/DTD/svg11.dtd">
<svg version="1.2" width="108.48mm" height="97.63mm" viewBox="0 0 10848 9763" preserveAspectRatio="xMidYMid" fill-rule="evenodd" stroke-width="28.222" stroke-linejoin="round" xmlns="http://www.w3.org/2000/svg" xmlns:ooo="http://xml.openoffice.org/svg/export" xmlns:xlink="http://www.w3.org/1999/xlink" xmlns:presentation="http://sun.com/xmlns/staroffice/presentation" xmlns:smil="http://www.w3.org/2001/SMIL20/" xmlns:anim="urn:oasis:names:tc:opendocument:xmlns:animation:1.0" xml:space="preserve">
 <defs class="ClipPathGroup">
  <clipPath id="presentation_clip_path" clipPathUnits="userSpaceOnUse">
   <rect x="0" y="0" width="10848" height="9763"/>
  </clipPath>
  <clipPath id="presentation_clip_path_shrink" clipPathUnits="userSpaceOnUse">
   <rect x="10" y="9" width="10827" height="9744"/>
  </clipPath>
 </defs>
 <defs class="TextShapeIndex">
  <g ooo:slide="id1" ooo:id-list="id3"/>
 </defs>
 <defs class="EmbeddedBulletChars">
  <g id="bullet-char-template-57356" transform="scale(0.00048828125,-0.00048828125)">
   <path d="M 580,1141 L 1163,571 580,0 -4,571 580,1141 Z"/>
  </g>
  <g id="bullet-char-template-57354" transform="scale(0.00048828125,-0.00048828125)">
   <path d="M 8,1128 L 1137,1128 1137,0 8,0 8,1128 Z"/>
  </g>
  <g id="bullet-char-template-10146" transform="scale(0.00048828125,-0.00048828125)">
   <path d="M 174,0 L 602,739 174,1481 1456,739 174,0 Z M 1358,739 L 309,1346 659,739 1358,739 Z"/>
  </g>
  <g id="bullet-char-template-10132" transform="scale(0.00048828125,-0.00048828125)">
   <path d="M 2015,739 L 1276,0 717,0 1260,543 174,543 174,936 1260,936 717,1481 1274,1481 2015,739 Z"/>
  </g>
  <g id="bullet-char-template-10007" transform="scale(0.00048828125,-0.00048828125)">
   <path d="M 0,-2 C -7,14 -16,27 -25,37 L 356,567 C 262,823 215,952 215,954 215,979 228,992 255,992 264,992 276,990 289,987 310,991 331,999 354,1012 L 381,999 492,748 772,1049 836,1024 860,1049 C 881,1039 901,1025 922,1006 886,937 835,863 770,784 769,783 710,716 594,584 L 774,223 C 774,196 753,168 711,139 L 727,119 C 717,90 699,76 672,76 641,76 570,178 457,381 L 164,-76 C 142,-110 111,-127 72,-127 30,-127 9,-110 8,-76 1,-67 -2,-52 -2,-32 -2,-23 -1,-13 0,-2 Z"/>
  </g>
  <g id="bullet-char-template-10004" transform="scale(0.00048828125,-0.00048828125)">
   <path d="M 285,-33 C 182,-33 111,30 74,156 52,228 41,333 41,471 41,549 55,616 82,672 116,743 169,778 240,778 293,778 328,747 346,684 L 369,508 C 377,444 397,411 428,410 L 1163,1116 C 1174,1127 1196,1133 1229,1133 1271,1133 1292,1118 1292,1087 L 1292,965 C 1292,929 1282,901 1262,881 L 442,47 C 390,-6 338,-33 285,-33 Z"/>
  </g>
  <g id="bullet-char-template-9679" transform="scale(0.00048828125,-0.00048828125)">
   <path d="M 813,0 C 632,0 489,54 383,161 276,268 223,411 223,592 223,773 276,916 383,1023 489,1130 632,1184 813,1184 992,1184 1136,1130 1245,1023 1353,916 1407,772 1407,592 1407,412 1353,268 1245,161 1136,54 992,0 813,0 Z"/>
  </g>
  <g id="bullet-char-template-8226" transform="scale(0.00048828125,-0.00048828125)">
   <path d="M 346,457 C 273,457 209,483 155,535 101,586 74,649 74,723 74,796 101,859 155,911 209,963 273,989 346,989 419,989 480,963 531,910 582,859 608,796 608,723 608,648 583,586 532,535 482,483 420,457 346,457 Z"/>
  </g>
  <g id="bullet-char-template-8211" transform="scale(0.00048828125,-0.00048828125)">
   <path d="M -4,459 L 1135,459 1135,606 -4,606 -4,459 Z"/>
  </g>
  <g id="bullet-char-template-61548" transform="scale(0.00048828125,-0.00048828125)">
   <path d="M 173,740 C 173,903 231,1043 346,1159 462,1274 601,1332 765,1332 928,1332 1067,1274 1183,1159 1299,1043 1357,903 1357,740 1357,577 1299,437 1183,322 1067,206 928,148 765,148 601,148 462,206 346,322 231,437 173,577 173,740 Z"/>
  </g>
 </defs>
 <defs class="TextEmbeddedBitmaps"/>
 <g>
  <g id="id2" class="Master_Slide">
   <g id="bg-id2" class="Background"/>
   <g id="bo-id2" class="BackgroundObjects"/>
  </g>
 </g>
 <g class="SlideGroup">
  <g>
   <g id="container-id1">
    <g id="id1" class="Slide" clip-path="url(#presentation_clip_path)">
     <g class="Page">
      <g class="Graphic">
       <g id="id3">
        <rect class="BoundingBox" stroke="none" fill="none" x="0" y="0" width="10848" height="9763"/>
        <defs>
         <clipPath id="clip_path_1" clipPathUnits="userSpaceOnUse">
          <path d="M 0,0 L 10847,0 10847,9762 0,9762 0,0 Z"/>
         </clipPath>
        </defs>
        <g clip-path="url(#clip_path_1)">
         <path fill="rgb(8,126,164)" stroke="none" d="M 5423,5941 C 5994,5941 6456,5478 6456,4908 6456,4337 5994,3875 5423,3875 4853,3875 4390,4337 4390,4908 4390,5478 4853,5941 5423,5941 L 5423,5941 Z"/>
         <path fill="rgb(8,126,164)" stroke="none" d="M 10847,4881 C 10847,4066 10091,3351 8889,2882 9083,1605 8841,592 8135,185 7504,-179 6631,-1 5675,687 5591,748 5507,812 5423,880 5339,812 5256,748 5172,687 4216,-1 3342,-180 2712,185 2006,592 1764,1604 1959,2880 755,3350 0,4066 0,4881 0,5696 755,6411 1958,6881 1763,8158 2005,9170 2712,9577 2925,9701 3168,9762 3431,9762 3944,9762 4540,9530 5172,9075 5256,9014 5340,8950 5424,8883 5507,8950 5591,9014 5675,9075 6307,9530 6903,9762 7416,9762 7679,9762 7921,9701 8135,9577 8766,9213 9048,8367 8930,7196 8919,7092 8906,6988 8889,6881 10092,6412 10847,5697 10847,4881 Z M 5977,1106 C 6514,719 7014,518 7416,518 7589,518 7744,555 7877,632 8339,899 8537,1665 8395,2710 7930,2567 7416,2458 6863,2388 6531,1953 6180,1559 5820,1224 5873,1184 5925,1144 5977,1106 Z M 2970,632 C 3102,555 3257,518 3431,518 3833,518 4332,719 4869,1106 4922,1144 4974,1183 5026,1224 4667,1559 4316,1952 3985,2388 3432,2457 2917,2567 2452,2709 2311,1665 2508,899 2970,632 Z M 517,4881 C 517,4347 1082,3793 2058,3393 2167,3866 2329,4367 2544,4880 2328,5394 2165,5895 2056,6369 1082,5969 517,5415 517,4881 Z M 4869,8656 C 4100,9210 3408,9383 2970,9131 2508,8863 2310,8097 2451,7052 2916,7195 3431,7304 3984,7374 4315,7810 4667,8203 5026,8539 4974,8579 4922,8619 4869,8656 Z M 5423,8202 C 5178,7978 4937,7725 4703,7448 4852,7452 5305,7464 5423,7464 5670,7464 5911,7455 6148,7441 5913,7721 5670,7976 5423,8202 Z M 3634,5914 C 3500,5683 3236,5120 3113,4863 3261,4533 3434,4193 3634,3848 3767,3618 4051,3112 4205,2880 4588,2838 4996,2815 5423,2815 5703,2815 6287,2809 6548,2828 6782,3146 7005,3488 7213,3848 7346,4079 7629,4606 7753,4857 7600,5201 7421,5554 7213,5914 7081,6143 6714,6656 6553,6892 6195,6928 5818,6947 5423,6947 5156,6947 4550,6914 4270,6894 4046,6587 3833,6259 3634,5914 Z M 3186,6172 C 3309,6384 3437,6591 3570,6791 3198,6726 2855,6642 2543,6543 2616,6211 2720,5858 2856,5490 2929,5635 3128,6071 3186,6172 Z M 3186,3591 C 3062,3805 2949,4019 2842,4232 2713,3878 2614,3538 2544,3218 2848,3122 3181,3040 3540,2975 3447,3133 3241,3496 3186,3591 Z M 6130,2299 C 6130,2299 6130,2299 6130,2299 6008,2295 5548,2299 5423,2299 5177,2299 4935,2307 4698,2321 4933,2042 5177,1786 5423,1560 5663,1780 5900,2028 6130,2299 6216,2401 6302,2506 6386,2615 6304,2506 6222,2402 6130,2299 Z M 7660,3590 C 7538,3377 7409,3171 7277,2971 7648,3037 7992,3121 8304,3219 8234,3538 8135,3876 8007,4229 7937,4098 7720,3692 7660,3590 Z M 7660,6172 C 7784,5959 7897,5746 8003,5533 8128,5878 8227,6217 8300,6545 7980,6646 7629,6731 7249,6797 7313,6692 7599,6280 7660,6172 Z M 7877,9131 C 7439,9384 6746,9211 5977,8656 5925,8619 5873,8579 5820,8539 6180,8203 6531,7810 6862,7374 7414,7305 7928,7196 8392,7054 8401,7119 8410,7184 8417,7248 8511,8192 8315,8877 7877,9131 Z M 8790,6369 C 8679,5889 8515,5389 8302,4883 8519,4369 8681,3868 8790,3394 9765,3794 10330,4347 10330,4881 10330,5415 9765,5969 8790,6369 Z"/>
        </g>
       </g>
      </g>
     </g>
    </g>
   </g>
  </g>
 </g>
</svg>