<svg class="svg-icon" style="width: 1em; height: 1em;vertical-align: middle;fill: currentColor;overflow: hidden;" viewBox="0 0 1024 1024" version="1.1" xmlns="http://www.w3.org/2000/svg"><path d="M0 0h1024v1024H0z" fill="#FCFAFB" /><path d="M768.846748 456.490996c-66.987137 98.975377-133.974274 110.641676-183.650129 76.771775-49.675854-33.869901-63.976479-100.104373 3.010658-199.07975S827.930908 174.618155 827.930908 174.618155s7.902977 182.897464-59.08416 281.872841z" fill="#36B474" /><path d="M638.259463 569.390665c-22.203602 0-44.030871-6.77398-63.976479-20.32194-31.611907-21.827269-95.588387-86.932745-1.881661-225.046674 69.621463-103.115031 241.605292-164.080853 249.131937-166.715179l24.085263-8.279309 1.128996 25.21426c0.376332 7.902977 7.526645 190.424109-62.47115 293.162808-39.514884 57.955164-81.664094 91.825064-125.318633 100.104373-6.77398 1.128997-13.54796 1.881661-20.698273 1.881661z m171.231165-367.300257c-48.92319 20.32194-157.683205 71.879456-205.477398 142.629915-53.439177 78.653436-56.073502 139.99559-7.902976 173.112827 17.687615 12.042631 36.504226 16.182286 56.073502 12.418963 33.117236-6.397648 68.116134-35.37523 101.23337-84.29842 47.794193-70.750459 55.320838-190.800441 56.073502-243.863285z" fill="#333333" /><path d="M517.080485 264.185226c68.868798 97.84638 55.69717 164.457185 6.397648 199.07975s-116.286659 24.085263-184.779125-73.761117-63.976479-281.120176-63.97648-281.120177 173.865491 57.578831 242.357957 155.801544z" fill="#36B474" /><path d="M468.90996 500.145535c-6.397648 0-12.795296-0.376332-19.192944-1.505329-44.030871-7.526645-86.556413-40.643881-126.44763-98.222712C252.142595 298.807791 255.905917 115.910327 255.905917 108.00735l0.752664-25.214259 24.085263 7.902977c7.526645 2.257993 180.639471 60.589489 251.766263 162.951856 40.267549 57.202499 56.826167 108.383682 49.299522 152.414553-5.268651 29.730246-21.450937 54.944506-47.417861 73.008453-20.32194 13.924293-42.525542 21.074605-65.481808 21.074605zM293.915472 135.855935c1.881661 53.062845 11.289967 173.112826 60.213157 243.110621 33.869901 48.170526 69.24513 76.771775 102.362367 82.793091 19.569276 3.38699 38.76222-1.128997 56.073502-13.54796 17.687615-12.418964 28.60125-28.977582 31.98824-48.546858 5.644983-33.117236-9.031974-76.019111-42.901874-124.189636-48.92319-70.750459-158.435869-120.049982-207.735392-139.619258z" fill="#333333" /><path d="M511.059169 554.713708m-223.917677 0a223.917677 223.917677 0 1 0 447.835355 0 223.917677 223.917677 0 1 0-447.835355 0Z" fill="#5998D8" /><path d="M511.059169 797.447997c-133.974274 0-242.734289-108.760015-242.734288-242.734289s108.760015-242.734289 242.734288-242.734289 242.734289 108.760015 242.734289 242.734289-108.760015 242.734289-242.734289 242.734289z m0-447.835355c-113.276001 0-205.101066 91.825064-205.101065 205.101066s91.825064 205.101066 205.101065 205.101066 205.101066-91.825064 205.101066-205.101066c0-112.899669-91.825064-205.101066-205.101066-205.101066z" fill="#333333" /><path d="M557.724366 410.954796l6.021316 19.945608c1.128997 4.139655 4.515987 7.150312 8.279309 8.655642l19.945608 6.397647c10.16097 3.38699 12.042631 16.93495 3.38699 22.956267l-16.93495 11.666299c-3.38699 2.257993-5.644983 6.397648-5.644984 10.537302v20.698273c0 10.537302-12.042631 16.558618-20.698272 10.16097l-16.558619-12.795296c-3.38699-2.634326-7.902977-3.38699-11.666299-1.881661l-19.945608 6.397648c-10.16097 3.38699-19.569276-6.397648-16.182286-16.558618l6.77398-19.569276c1.505329-4.139655 0.752664-8.279309-1.881661-11.666299l-12.418964-16.934951c-6.397648-8.655641 0-20.698273 10.537303-20.32194l20.698273 0.376332c4.139655 0 8.279309-1.881661 10.913634-5.268651l12.042632-16.934951c7.150312-8.279309 20.32194-6.021316 23.332598 4.139655z" fill="#333333" /><path d="M311.226755 712.773245m-187.413451 0a187.413451 187.413451 0 1 0 374.826902 0 187.413451 187.413451 0 1 0-374.826902 0Z" fill="#5998D8" /><path d="M311.226755 919.003308c-113.652334 0-206.230062-92.577729-206.230063-206.230063s92.577729-206.230062 206.230063-206.230062 206.230062 92.577729 206.230062 206.230062-92.577729 206.230062-206.230062 206.230063z m0-374.826902c-92.954061 0-168.596839 75.642778-168.59684 168.596839s75.642778 168.596839 168.59684 168.59684c92.954061 0 168.596839-75.642778 168.596839-168.59684s-75.642778-168.596839-168.596839-168.596839z" fill="#333333" /><path d="M329.290702 588.207277l7.526645 15.429621c1.505329 3.010658 4.515987 5.268651 8.279309 6.021316l17.311282 2.634326c8.655641 1.128997 12.418964 12.042631 6.021316 18.440279l-12.418964 12.042631c-2.634326 2.634326-3.763322 6.021316-3.010658 9.408306l3.010658 17.311283c1.505329 8.655641-7.902977 15.429621-15.429621 11.289967l-15.429622-8.27931c-3.010658-1.505329-6.77398-1.505329-10.16097 0l-15.429621 8.27931c-7.902977 4.139655-17.311283-2.634326-15.429622-11.289967l3.010658-17.311283c0.752664-3.38699-0.376332-7.150312-3.010658-9.408306l-12.418963-12.042631c-6.397648-6.397648-3.010658-16.93495 6.021315-18.440279l17.311283-2.634326c3.38699-0.376332 6.397648-2.634326 8.279309-6.021316l7.526645-15.429621c3.38699-7.902977 14.676957-7.902977 18.440279 0z" fill="#333333" /><path d="M713.149577 728.202867m-187.413451 0a187.413451 187.413451 0 1 0 374.826902 0 187.413451 187.413451 0 1 0-374.826902 0Z" fill="#5998D8" /><path d="M713.149577 934.432929c-113.652334 0-206.230062-92.577729-206.230062-206.230062s92.577729-206.230062 206.230062-206.230063 206.230062 92.577729 206.230063 206.230063-92.577729 206.230062-206.230063 206.230062z m0-374.826902c-92.954061 0-168.596839 75.642778-168.596839 168.59684s75.642778 168.596839 168.596839 168.596839 168.596839-75.642778 168.59684-168.596839-75.642778-168.596839-168.59684-168.59684z" fill="#333333" /><path d="M751.911797 608.529217l4.892319 16.558618c1.128997 3.38699 3.763322 6.021316 7.150313 7.150313l16.558618 5.268651c8.655641 2.634326 10.16097 13.924293 2.634325 19.192944l-14.300624 9.784638c-3.010658 1.881661-4.515987 5.268651-4.515987 9.031973v17.311283c0 9.031974-10.16097 13.924293-17.311283 8.655641l-13.924292-10.537302c-2.634326-2.257993-6.397648-2.634326-9.784638-1.505329l-16.558619 5.268651c-8.655641 2.634326-16.558618-5.268651-13.54796-13.924292l5.644984-16.558619c1.128997-3.38699 0.752664-7.150312-1.505329-9.784638l-10.160971-13.924292c-5.268651-7.150312 0-17.311283 9.031974-16.934951l17.311283 0.376333c3.38699 0 6.77398-1.505329 9.031973-4.515987l10.16097-13.924293c5.644983-7.526645 16.93495-5.644983 19.192944 3.010658z" fill="#333333" /></svg>